<?xml version="1.0" encoding="iso-8859-1"?>
<!-- Generator: Adobe Illustrator 19.0.0, SVG Export Plug-In . SVG Version: 6.00 Build 0)  -->
<svg xmlns="http://www.w3.org/2000/svg" xmlns:xlink="http://www.w3.org/1999/xlink" version="1.1" id="Layer_1" x="0px" y="0px" viewBox="0 0 512 512" style="enable-background:new 0 0 512 512;" xml:space="preserve" width="512px" height="512px">
<g>
	<g>
		<path d="M467,60h-17.763C444.705,47.292,434.708,37.295,422,32.763V15c0-8.291-6.709-15-15-15c-8.291,0-15,6.709-15,15v17.763    C379.292,37.295,369.295,47.292,364.763,60h-66.526C293.705,47.292,283.708,37.295,271,32.763V15c0-8.291-6.709-15-15-15    c-8.291,0-15,6.709-15,15v17.763C228.292,37.295,218.295,47.292,213.763,60h-66.526C142.705,47.292,132.708,37.295,120,32.763V15    c0-8.291-6.709-15-15-15S90,6.709,90,15v17.763C77.292,37.295,67.295,47.292,62.763,60H45C20.186,60,0,80.186,0,105v182    c0,24.814,20.186,45,45,45h45v30H45c-8.291,0-15,6.709-15,15c0,8.291,6.709,15,15,15h136v-30h-61v-30c31.335,0,59.218,0,91,0    c0,18.856,0,146.142,0,165c0,8.291,6.709,15,15,15h60c8.291,0,15-6.709,15-15c0-18.856,0-146.144,0-165c31.775,0,59.698,0,91,0v30    h-61v30h136c8.291,0,15-6.709,15-15c0-8.291-6.709-15-15-15h-45v-30h45c24.814,0,45-20.186,45-45V105    C512,80.186,491.814,60,467,60z M120,90H90V75c0-8.276,6.724-15,15-15s15,6.724,15,15V90z M271,90h-30V75c0-8.276,6.724-15,15-15    s15,6.724,15,15V90z M422,90h-30V75c0-8.276,6.724-15,15-15s15,6.724,15,15V90z" fill="#FFFFFF"/>
	</g>
</g>
<g>
</g>
<g>
</g>
<g>
</g>
<g>
</g>
<g>
</g>
<g>
</g>
<g>
</g>
<g>
</g>
<g>
</g>
<g>
</g>
<g>
</g>
<g>
</g>
<g>
</g>
<g>
</g>
<g>
</g>
</svg>
