<?xml version="1.0" encoding="iso-8859-1"?>
<!-- Generator: Adobe Illustrator 19.0.0, SVG Export Plug-In . SVG Version: 6.00 Build 0)  -->
<svg xmlns="http://www.w3.org/2000/svg" xmlns:xlink="http://www.w3.org/1999/xlink" version="1.1" id="Capa_1" x="0px" y="0px" viewBox="0 0 512 512" style="enable-background:new 0 0 512 512;" xml:space="preserve" width="512px" height="512px">
<g>
	<g>
		<path d="M347,60c-33.091,0-60,26.909-60,60s26.909,60,60,60s60-26.909,60-60S380.091,60,347,60z" fill="#FFFFFF"/>
	</g>
</g>
<g>
	<g>
		<path d="M347,0c-90.981,0-165,74.019-165,165c0,40.102,14.409,76.882,38.282,105.507l-55.304,55.279l-10.605-10.605    c-5.859-5.859-15.352-5.859-21.211,0l-120,120c-17.549,17.549-17.549,46.084,0,63.633c17.582,17.582,46.051,17.582,63.633,0    l120-120c5.859-5.859,5.859-15.352,0-21.211l-10.605-10.605l55.304-55.279c1.527,1.273,3.155,2.417,4.726,3.635    C260.587,310.345,304.754,330,347,330c89.747,0,165-73.381,165-165C512,74.019,437.981,0,347,0z M447.045,254.81    C433.979,211.69,394.325,180,347,180s-86.979,31.69-100.045,74.81C225.466,230.892,212,199.611,212,165    c0-74.443,60.557-135,135-135s135,60.557,135,135C482,199.611,468.534,230.892,447.045,254.81z" fill="#FFFFFF"/>
	</g>
</g>
<g>
</g>
<g>
</g>
<g>
</g>
<g>
</g>
<g>
</g>
<g>
</g>
<g>
</g>
<g>
</g>
<g>
</g>
<g>
</g>
<g>
</g>
<g>
</g>
<g>
</g>
<g>
</g>
<g>
</g>
</svg>
