<?xml version="1.0" encoding="utf-8"?>
<!-- Generator: Adobe Illustrator 16.0.2, SVG Export Plug-In . SVG Version: 6.00 Build 0)  -->
<!DOCTYPE svg PUBLIC "-//W3C//DTD SVG 1.1//EN" "http://www.w3.org/Graphics/SVG/1.1/DTD/svg11.dtd">
<svg version="1.1" id="Layer_1" xmlns="http://www.w3.org/2000/svg" xmlns:xlink="http://www.w3.org/1999/xlink" x="0px" y="0px"
	 width="81.596px" height="99.63px" viewBox="0 0 81.596 99.63" enable-background="new 0 0 81.596 99.63" xml:space="preserve">
<path fill="#FFFFFF" d="M14.281,0.002c1.5,0.5,7.125,2.625,7.125,9.625c0,0,7.875,3.25,10.25,12s2.75,8.75,5.25,11.875
	s11,12,16.375,16.75s16.625,14.5,10.875,41c0,0,7.229,0.625,8.739-20.25c1.51-20.875-15.989-22.25-7.739-40.875
	c0,0,6.747-8.671,15.5,4.25c2.625,3.875-0.625,6.25-5.125,6.5s-3.875,4.086-3.375,5.729c0.5,1.645,7.25,18.896,5.5,30.146
	s-8.25,19.875-14.625,22.875l-43.875-0.5c0,0-1.209-0.625-0.75-1.958s1.625-4.791,7.334-4.708c5.707,0.083,6.707,0.334,7.957-0.083
	c0,0-12.916-7.458-9.999-20.25c0,0,1.916-6.086,8.083-8.252c0,0-8.416,1.418-9.583,11.251c0,0,0.833,7.25-0.917,10
	s-2.75,6.251-4.166,11.334c0,0-1.084,3.104-4.428,3.166s-7.25-0.813-6.438-4.155c0.812-3.344,5-2.281,5-2.281
	s5.863-11.813-1.304-27.646c0,0-8.416-13.583-0.166-24.833c0,0,2.313-5.678-0.405-6.678c-2.72-1-6-0.47-8.031-4.188
	c0,0,0.078-0.984-1.172-1.844l-0.172-1c0,0,1.614-1.957,2.155-6.041c0,0-1.084-3,2.25-6.917s6.125-3.044,7.541-5.835
	C13.364,5.417,14.114,0,14.114,0"/>
</svg>
